<svg width="589" height="52" viewBox="0 0 589 52" fill="none" xmlns="http://www.w3.org/2000/svg">
<path d="M54.5138 20.816H27.3138C27.3138 20.816 27.3138 20.8373 27.3138 20.88V24.592C27.3138 24.6347 27.3138 24.656 27.3138 24.656H53.5538V39.888H27.3138C27.3138 39.888 27.3138 39.9093 27.3138 39.952C27.3138 41.4027 27.3138 42.6187 27.3138 43.6C27.3138 44.5387 27.3138 45.4773 27.3138 46.416C27.3138 47.3547 27.3138 48.5493 27.3138 50H0.68979C0.68979 46.9707 0.68979 43.9413 0.68979 40.912C0.68979 37.8827 0.68979 34.8747 0.68979 31.888C0.68979 28.8587 0.68979 25.8293 0.68979 22.8C0.68979 19.7707 0.68979 16.7413 0.68979 13.712C0.68979 11.7493 0.68979 9.808 0.68979 7.888C0.68979 5.92533 0.68979 3.96266 0.68979 2H54.5138V20.816ZM56.8148 2H103.087C106.841 2 109.956 2.68266 112.431 4.048C114.905 5.37066 116.761 7.09866 117.999 9.232C119.236 11.3227 119.855 13.5413 119.855 15.888C119.855 18.32 119.172 20.688 117.807 22.992C116.484 25.2533 114.457 27.1093 111.727 28.56C109.039 30.0107 105.668 30.736 101.615 30.736C101.444 30.736 101.017 30.736 100.335 30.736C99.6521 30.736 98.9481 30.736 98.2228 30.736C97.5401 30.736 97.0921 30.736 96.8788 30.736C96.8788 30.736 96.8788 30.7573 96.8788 30.8C96.8788 30.8427 96.8788 30.864 96.8788 30.864C96.8788 30.864 96.8788 30.8853 96.8788 30.928C96.8788 30.928 96.8788 30.9493 96.8788 30.992H111.407L121.263 50H90.8628C90.0521 47.824 89.2201 45.648 88.3668 43.472C87.5561 41.296 86.7241 39.12 85.8708 36.944C85.0601 34.768 84.2281 32.592 83.3748 30.416H90.7988C91.6521 30.416 92.3988 30.288 93.0388 30.032C93.7215 29.776 94.2761 29.4347 94.7028 29.008C95.1295 28.5813 95.4495 28.112 95.6628 27.6C95.8761 27.0453 95.9828 26.4907 95.9828 25.936C95.9828 25.168 95.7908 24.4427 95.4068 23.76C95.0228 23.0773 94.4468 22.5227 93.6788 22.096C92.9108 21.6693 91.9508 21.456 90.7988 21.456H83.5028C83.5028 21.456 83.4815 21.4773 83.4388 21.52C83.4388 21.52 83.4175 21.52 83.3748 21.52C83.3748 21.52 83.3748 21.5413 83.3748 21.584C83.3748 24.3573 83.3748 26.4053 83.3748 27.728C83.3748 29.008 83.3748 29.8187 83.3748 30.16C83.3748 30.4587 83.3748 30.5653 83.3748 30.48C83.3748 30.48 83.3748 30.7147 83.3748 31.184C83.3748 31.6107 83.3748 32.208 83.3748 32.976C83.3748 33.744 83.3748 34.6187 83.3748 35.6C83.3748 37.008 83.3748 38.5653 83.3748 40.272C83.3748 41.9787 83.3748 43.6853 83.3748 45.392C83.3748 47.056 83.3748 48.592 83.3748 50H56.8148C56.8148 47.2693 56.8148 44.5387 56.8148 41.808C56.8148 39.0347 56.8148 36.2827 56.8148 33.552C56.8148 30.8213 56.8148 28.0907 56.8148 25.36C56.8148 22.5867 56.8148 19.8347 56.8148 17.104C56.8148 14.5867 56.8148 12.0693 56.8148 9.552C56.8148 7.03466 56.8148 4.51733 56.8148 2ZM176.576 18.128H148.736C148.694 18.128 148.672 18.128 148.672 18.128V21.648C148.672 21.6907 148.672 21.7333 148.672 21.776C148.715 21.776 148.736 21.776 148.736 21.776H175.616V30.8H148.736C148.736 30.8 148.715 30.8 148.672 30.8C148.672 30.8 148.672 30.8213 148.672 30.864C148.672 30.864 148.672 30.8853 148.672 30.928V34.512C148.715 34.512 148.736 34.512 148.736 34.512H176.96V50H122.752C122.752 47.4827 122.752 44.9653 122.752 42.448C122.752 39.888 122.752 37.3493 122.752 34.832C122.752 32.3147 122.752 29.7973 122.752 27.28C122.752 24.72 122.752 22.1813 122.752 19.664C122.752 17.104 122.752 14.5653 122.752 12.048C122.752 10.384 122.752 8.72 122.752 7.056C122.752 5.34933 122.752 3.664 122.752 2H176.576V18.128ZM212.785 21.072C219.185 21.072 224.54 21.3493 228.849 21.904C233.159 22.4587 236.593 23.3333 239.153 24.528C241.713 25.68 243.548 27.1733 244.657 29.008C245.767 30.8 246.321 32.9333 246.321 35.408C246.321 38.096 245.447 40.4853 243.697 42.576C241.991 44.624 239.58 46.352 236.465 47.76C233.393 49.1253 229.809 50.1493 225.713 50.832C221.66 51.5573 217.287 51.92 212.593 51.92C207.388 51.92 202.652 51.536 198.385 50.768C194.119 50 190.492 48.8267 187.505 47.248C184.519 45.6267 182.279 43.5573 180.785 41.04C179.335 38.5227 178.759 35.5147 179.057 32.016L206.385 30.16C206.044 31.44 206.129 32.5067 206.641 33.36C207.196 34.2133 208.049 34.8533 209.201 35.28C210.353 35.7067 211.633 35.92 213.041 35.92C213.895 35.92 214.663 35.856 215.345 35.728C216.071 35.6 216.711 35.408 217.265 35.152C217.82 34.896 218.247 34.576 218.545 34.192C218.844 33.7653 218.993 33.296 218.993 32.784C218.993 31.76 218.46 31.0987 217.393 30.8C216.369 30.5013 214.855 30.352 212.849 30.352C212.764 30.352 212.657 30.352 212.529 30.352C212.444 30.352 212.337 30.352 212.209 30.352C212.124 30.352 212.017 30.352 211.889 30.352C211.761 30.352 211.633 30.352 211.505 30.352C211.42 30.352 211.335 30.352 211.249 30.352C204.935 30.352 199.687 30.032 195.505 29.392C191.324 28.7093 188.017 27.7707 185.585 26.576C183.153 25.3813 181.425 23.9733 180.401 22.352C179.377 20.688 178.865 18.832 178.865 16.784C178.865 14.608 179.441 12.6453 180.593 10.896C181.745 9.104 183.367 7.54666 185.457 6.224C187.591 4.85867 190.065 3.728 192.881 2.832C195.74 1.936 198.855 1.25333 202.225 0.783997C205.639 0.314664 209.201 0.079998 212.913 0.079998C218.161 0.079998 222.855 0.549332 226.993 1.488C231.175 2.42666 234.673 3.77066 237.489 5.52C240.348 7.26933 242.396 9.36 243.633 11.792C244.871 14.224 245.169 16.9547 244.529 19.984L218.097 21.2C218.567 19.9627 218.545 18.96 218.033 18.192C217.521 17.3813 216.711 16.8053 215.601 16.464C214.535 16.08 213.319 15.888 211.953 15.888C211.1 15.888 210.332 15.9733 209.649 16.144C208.967 16.272 208.369 16.4853 207.857 16.784C207.388 17.04 207.004 17.36 206.705 17.744C206.449 18.128 206.321 18.5333 206.321 18.96C206.321 19.472 206.492 19.8987 206.833 20.24C207.175 20.5387 207.687 20.752 208.369 20.88C209.095 21.008 210.033 21.072 211.185 21.072C211.271 21.072 211.356 21.072 211.441 21.072C211.569 21.072 211.676 21.072 211.761 21.072C211.889 21.072 211.996 21.072 212.081 21.072C212.209 21.072 212.316 21.072 212.401 21.072C212.529 21.072 212.657 21.072 212.785 21.072ZM283.897 2H310.457C310.457 4.688 310.457 7.376 310.457 10.064C310.457 12.752 310.457 15.44 310.457 18.128C310.457 20.816 310.457 23.5253 310.457 26.256C310.457 30.1813 310.457 34.128 310.457 38.096C310.457 42.064 310.457 46.032 310.457 50H283.897C283.897 47.3973 283.897 44.7947 283.897 42.192C283.897 39.5893 283.897 36.9867 283.897 34.384C283.897 34.3413 283.876 34.32 283.833 34.32C283.833 34.2773 283.812 34.256 283.769 34.256H275.001C274.959 34.256 274.937 34.2773 274.937 34.32C274.937 34.32 274.937 34.3413 274.937 34.384C274.937 36.9867 274.937 39.5893 274.937 42.192C274.937 44.7947 274.937 47.3973 274.937 50H248.377C248.377 47.44 248.377 44.88 248.377 42.32C248.377 39.76 248.377 37.2 248.377 34.64C248.377 32.08 248.377 29.52 248.377 26.96C248.377 24.4 248.377 21.84 248.377 19.28C248.377 16.72 248.377 14.16 248.377 11.6C248.377 9.97867 248.377 8.37867 248.377 6.8C248.377 5.17866 248.377 3.57866 248.377 2H274.937C274.937 4.048 274.937 6.11733 274.937 8.208C274.937 10.2987 274.937 12.3893 274.937 14.48C274.937 16.528 274.937 18.5973 274.937 20.688C274.937 20.7307 274.937 20.7733 274.937 20.816C274.937 20.816 274.959 20.816 275.001 20.816H283.769C283.812 20.816 283.833 20.816 283.833 20.816C283.876 20.7733 283.897 20.7307 283.897 20.688C283.897 17.5733 283.897 14.4587 283.897 11.344C283.897 8.22933 283.897 5.11466 283.897 2ZM313.002 2H363.37C366.229 2 368.597 2.55466 370.474 3.664C372.352 4.73066 373.76 6.11733 374.698 7.824C375.68 9.53067 376.17 11.3227 376.17 13.2C376.17 15.0773 375.68 16.912 374.698 18.704C373.717 20.4533 372.224 21.8827 370.218 22.992C368.256 24.1013 365.781 24.656 362.794 24.656C362.794 24.656 362.773 24.656 362.73 24.656C362.73 24.656 362.73 24.6773 362.73 24.72C362.773 24.72 362.794 24.72 362.794 24.72C366.25 24.72 369.109 25.3387 371.37 26.576C373.632 27.8133 375.317 29.392 376.426 31.312C377.536 33.232 378.09 35.2587 378.09 37.392C378.09 38.9707 377.77 40.5067 377.13 42C376.533 43.4933 375.616 44.8587 374.378 46.096C373.141 47.2907 371.605 48.2507 369.77 48.976C367.936 49.6587 365.802 50 363.37 50H313.002C313.002 47.0987 313.002 44.2187 313.002 41.36C313.002 38.4587 313.002 35.5573 313.002 32.656C313.002 29.7547 313.002 26.8747 313.002 24.016C313.002 21.1147 313.002 18.2133 313.002 15.312C313.002 13.0933 313.002 10.8747 313.002 8.656C313.002 6.43733 313.002 4.21866 313.002 2ZM338.218 27.216C338.218 27.6853 338.218 28.1547 338.218 28.624C338.218 29.0933 338.218 29.5627 338.218 30.032C338.218 30.3733 338.218 30.7147 338.218 31.056C338.218 31.3547 338.218 31.6533 338.218 31.952C338.218 32.2507 338.218 32.5493 338.218 32.848C338.218 32.8907 338.218 32.912 338.218 32.912C338.218 32.912 338.24 32.912 338.282 32.912H347.37C348.522 32.912 349.376 32.6133 349.93 32.016C350.528 31.4187 350.826 30.736 350.826 29.968C350.826 29.584 350.762 29.2427 350.634 28.944C350.506 28.6027 350.314 28.304 350.058 28.048C349.845 27.7493 349.546 27.536 349.162 27.408C348.821 27.2373 348.416 27.152 347.946 27.152H338.282C338.282 27.152 338.261 27.1733 338.218 27.216ZM338.282 18.192C338.24 18.192 338.218 18.2133 338.218 18.256C338.218 18.512 338.218 18.8107 338.218 19.152C338.218 19.4507 338.218 19.7707 338.218 20.112C338.218 20.4107 338.218 20.7307 338.218 21.072C338.218 21.5413 338.218 22.032 338.218 22.544C338.218 23.0133 338.218 23.4613 338.218 23.888C338.218 23.9307 338.218 23.952 338.218 23.952C338.218 23.952 338.24 23.952 338.282 23.952H347.05C347.818 23.952 348.458 23.824 348.97 23.568C349.482 23.2693 349.866 22.9067 350.122 22.48C350.378 22.0107 350.506 21.52 350.506 21.008C350.506 20.2827 350.25 19.6427 349.738 19.088C349.269 18.4907 348.565 18.192 347.626 18.192H338.282ZM413.562 0.079998C421.413 0.079998 427.941 1.18933 433.146 3.408C438.352 5.62666 442.256 8.67733 444.858 12.56C447.461 16.4427 448.762 20.9013 448.762 25.936C448.762 28.6667 448.357 31.312 447.546 33.872C446.736 36.3893 445.456 38.7573 443.706 40.976C441.957 43.152 439.696 45.072 436.922 46.736C434.149 48.3573 430.821 49.616 426.938 50.512C423.098 51.4507 418.64 51.92 413.562 51.92C409.936 51.92 406.608 51.664 403.578 51.152C400.592 50.6827 397.882 50.0213 395.45 49.168C393.018 48.272 390.864 47.2053 388.986 45.968C387.152 44.7307 385.552 43.3653 384.186 41.872C382.864 40.336 381.754 38.7147 380.858 37.008C380.005 35.3013 379.365 33.5093 378.938 31.632C378.554 29.7547 378.362 27.856 378.362 25.936C378.362 23.4187 378.682 21.0293 379.322 18.768C380.005 16.5067 380.986 14.416 382.266 12.496C383.589 10.576 385.21 8.86933 387.13 7.376C389.093 5.84 391.376 4.53866 393.978 3.472C396.581 2.36266 399.504 1.53067 402.746 0.975998C406.032 0.378665 409.637 0.079998 413.562 0.079998ZM413.626 20.432C412.133 20.432 410.853 20.6027 409.786 20.944C408.762 21.2427 407.93 21.6693 407.29 22.224C406.693 22.736 406.245 23.3333 405.946 24.016C405.69 24.656 405.562 25.3173 405.562 26C405.562 26.896 405.818 27.7707 406.33 28.624C406.842 29.4773 407.696 30.1813 408.89 30.736C410.085 31.2907 411.664 31.568 413.626 31.568C414.778 31.568 415.781 31.4613 416.634 31.248C417.53 31.0347 418.277 30.7573 418.874 30.416C419.514 30.032 420.026 29.6053 420.41 29.136C420.837 28.624 421.136 28.112 421.306 27.6C421.477 27.0453 421.562 26.4907 421.562 25.936C421.562 25.296 421.413 24.656 421.114 24.016C420.858 23.376 420.432 22.8 419.834 22.288C419.237 21.7333 418.426 21.2853 417.402 20.944C416.378 20.6027 415.12 20.432 413.626 20.432ZM509.247 2H535.167C534.229 6.01066 533.29 10.0213 532.351 14.032C531.455 18 530.538 21.9893 529.599 26C528.661 30.0107 527.722 34.0213 526.783 38.032C525.887 42 524.991 45.9893 524.095 50H494.335L490.495 25.936C490.495 25.8933 490.474 25.872 490.431 25.872C490.431 25.8293 490.431 25.808 490.431 25.808C490.431 25.808 490.41 25.808 490.367 25.808C490.367 25.808 490.346 25.8293 490.303 25.872C490.303 25.872 490.303 25.8933 490.303 25.936L486.527 50H458.751C457.983 46.8 457.215 43.6 456.447 40.4C455.679 37.2 454.89 34 454.079 30.8C453.311 27.6 452.543 24.4 451.775 21.2C451.007 18 450.218 14.8 449.407 11.6C448.639 8.4 447.871 5.2 447.103 2H474.367C474.709 4.176 475.029 6.37333 475.327 8.592C475.669 10.768 475.989 12.944 476.287 15.12C476.629 17.296 476.97 19.4933 477.311 21.712C477.653 23.888 477.973 26.064 478.271 28.24C478.271 28.24 478.293 28.24 478.335 28.24C478.378 28.24 478.421 28.24 478.463 28.24C478.506 28.24 478.527 28.24 478.527 28.24C478.57 28.24 478.591 28.24 478.591 28.24L482.175 2H501.439L505.215 28.24C505.258 28.24 505.279 28.24 505.279 28.24C505.322 28.24 505.343 28.24 505.343 28.24C505.983 23.8453 506.623 19.472 507.263 15.12C507.946 10.768 508.607 6.39466 509.247 2ZM563.25 31.056C563.25 31.0987 563.25 31.1413 563.25 31.184C563.292 31.184 563.335 31.184 563.378 31.184H588.338V50H536.69C536.69 47.3547 536.69 44.7093 536.69 42.064C536.69 39.4187 536.69 36.7733 536.69 34.128C536.69 31.44 536.69 28.7733 536.69 26.128C536.69 23.4827 536.69 20.8373 536.69 18.192C536.69 15.504 536.69 12.816 536.69 10.128C536.69 7.39733 536.69 4.688 536.69 2H563.25C563.25 4.432 563.25 6.864 563.25 9.296C563.25 11.6853 563.25 14.096 563.25 16.528C563.25 18.96 563.25 21.392 563.25 23.824C563.25 26.2133 563.25 28.624 563.25 31.056Z" fill="url(#paint0_linear_6_176)"/>
<defs>
<linearGradient id="paint0_linear_6_176" x1="-0.59021" y1="24.5" x2="589.41" y2="24.5" gradientUnits="userSpaceOnUse">
<stop stop-color="#8BD838"/>
<stop offset="1" stop-color="#1E7256"/>
</linearGradient>
</defs>
</svg>
